<?xml version="1.0" encoding="UTF-8" standalone="no"?>
<!DOCTYPE svg PUBLIC "-//W3C//DTD SVG 1.1//EN"
 "http://www.w3.org/Graphics/SVG/1.1/DTD/svg11.dtd">
<!-- Generated by graphviz version 7.0.6 (20230106.0513)
 -->
<!-- Title: dependency&#45;cruiser output Pages: 1 -->
<svg width="177pt" height="136pt"
 viewBox="0.00 0.00 177.00 136.00" xmlns="http://www.w3.org/2000/svg" xmlns:xlink="http://www.w3.org/1999/xlink">
<g id="graph0" class="graph" transform="scale(1 1) rotate(0) translate(4 132)">
<title>dependency&#45;cruiser output</title>
<polygon fill="white" stroke="none" points="-4,4 -4,-132 173,-132 173,4 -4,4"/>
<g id="clust1" class="cluster">
<title>cluster_src</title>
<path fill="#ffffff" stroke="black" stroke-width="2" d="M20,-8C20,-8 149,-8 149,-8 155,-8 161,-14 161,-20 161,-20 161,-108 161,-108 161,-114 155,-120 149,-120 149,-120 20,-120 20,-120 14,-120 8,-114 8,-108 8,-108 8,-20 8,-20 8,-14 14,-8 20,-8"/>
<text text-anchor="middle" x="84.5" y="-108.8" font-family="Helvetica,sans-Serif" font-weight="bold" font-size="9.00">src</text>
</g>
<!-- src/App.jsx -->
<g id="node1" class="node">
<title>src/App.jsx</title>
<g id="a_node1"><a xlink:href="src/App.jsx" xlink:title="App.jsx">
<path fill="#ffff77" stroke="black" d="M146.5,-94C146.5,-94 104.5,-94 104.5,-94 101.5,-94 98.5,-91 98.5,-88 98.5,-88 98.5,-82 98.5,-82 98.5,-79 101.5,-76 104.5,-76 104.5,-76 146.5,-76 146.5,-76 149.5,-76 152.5,-79 152.5,-82 152.5,-82 152.5,-88 152.5,-88 152.5,-91 149.5,-94 146.5,-94"/>
<text text-anchor="start" x="110" y="-82.8" font-family="Helvetica,sans-Serif" font-size="9.00">App.jsx</text>
</a>
</g>
</g>
<!-- src/App.test.jsx -->
<g id="node2" class="node">
<title>src/App.test.jsx</title>
<g id="a_node2"><a xlink:href="src/App.test.jsx" xlink:title="App.test.jsx">
<path fill="#ffff77" stroke="black" d="M76,-94C76,-94 25,-94 25,-94 22,-94 19,-91 19,-88 19,-88 19,-82 19,-82 19,-79 22,-76 25,-76 25,-76 76,-76 76,-76 79,-76 82,-79 82,-82 82,-82 82,-88 82,-88 82,-91 79,-94 76,-94"/>
<text text-anchor="start" x="27" y="-82.8" font-family="Helvetica,sans-Serif" font-size="9.00">App.test.jsx</text>
</a>
</g>
</g>
<!-- src/App.test.jsx&#45;&gt;src/App.jsx -->
<g id="edge1" class="edge">
<title>src/App.test.jsx&#45;&gt;src/App.jsx</title>
<path fill="none" stroke="#000000" stroke-width="2" stroke-opacity="0.200000" d="M82.46,-85C84.77,-85 87.11,-85 89.45,-85"/>
<polygon fill="#000000" fill-opacity="0.200000" stroke="#000000" stroke-width="2" stroke-opacity="0.200000" points="89.31,-87.1 95.31,-85 89.31,-82.9 89.31,-87.1"/>
</g>
<!-- src/index.css -->
<g id="node3" class="node">
<title>src/index.css</title>
<g id="a_node3"><a xlink:href="src/index.css" xlink:title="index.css">
<path fill="#ffffcc" stroke="black" d="M147,-64C147,-64 104,-64 104,-64 101,-64 98,-61 98,-58 98,-58 98,-52 98,-52 98,-49 101,-46 104,-46 104,-46 147,-46 147,-46 150,-46 153,-49 153,-52 153,-52 153,-58 153,-58 153,-61 150,-64 147,-64"/>
<text text-anchor="start" x="106" y="-52.8" font-family="Helvetica,sans-Serif" font-size="9.00">index.css</text>
</a>
</g>
</g>
<!-- src/main.jsx -->
<g id="node4" class="node">
<title>src/main.jsx</title>
<g id="a_node4"><a xlink:href="src/main.jsx" xlink:title="main.jsx">
<path fill="#ffff77" stroke="black" d="M71.5,-64C71.5,-64 29.5,-64 29.5,-64 26.5,-64 23.5,-61 23.5,-58 23.5,-58 23.5,-52 23.5,-52 23.5,-49 26.5,-46 29.5,-46 29.5,-46 71.5,-46 71.5,-46 74.5,-46 77.5,-49 77.5,-52 77.5,-52 77.5,-58 77.5,-58 77.5,-61 74.5,-64 71.5,-64"/>
<text text-anchor="start" x="33.5" y="-52.8" font-family="Helvetica,sans-Serif" font-size="9.00">main.jsx</text>
</a>
</g>
</g>
<!-- src/main.jsx&#45;&gt;src/App.jsx -->
<g id="edge2" class="edge">
<title>src/main.jsx&#45;&gt;src/App.jsx</title>
<path fill="none" stroke="#000000" stroke-width="2" stroke-opacity="0.200000" d="M74.6,-64.49C80.51,-66.92 86.97,-69.58 93.23,-72.15"/>
<polygon fill="#000000" fill-opacity="0.200000" stroke="#000000" stroke-width="2" stroke-opacity="0.200000" points="92.4,-74.08 98.75,-74.42 94,-70.2 92.4,-74.08"/>
</g>
<!-- src/main.jsx&#45;&gt;src/index.css -->
<g id="edge3" class="edge">
<title>src/main.jsx&#45;&gt;src/index.css</title>
<path fill="none" stroke="#000000" stroke-width="2" stroke-opacity="0.200000" d="M77.85,-55C81.53,-55 85.35,-55 89.16,-55"/>
<polygon fill="#000000" fill-opacity="0.200000" stroke="#000000" stroke-width="2" stroke-opacity="0.200000" points="88.91,-57.1 94.91,-55 88.91,-52.9 88.91,-57.1"/>
</g>
<!-- src/setupTests.js -->
<g id="node5" class="node">
<title>src/setupTests.js</title>
<g id="a_node5"><a xlink:href="src/setupTests.js" xlink:title="setupTests.js">
<path fill="#ccffcc" stroke="black" d="M79,-34C79,-34 22,-34 22,-34 19,-34 16,-31 16,-28 16,-28 16,-22 16,-22 16,-19 19,-16 22,-16 22,-16 79,-16 79,-16 82,-16 85,-19 85,-22 85,-22 85,-28 85,-28 85,-31 82,-34 79,-34"/>
<text text-anchor="start" x="24" y="-22.8" font-family="Helvetica,sans-Serif" font-size="9.00">setupTests.js</text>
</a>
</g>
</g>
</g>
</svg>
